<svg version="1.0" xmlns="http://www.w3.org/2000/svg" width="148.000000pt" height="148.000000pt" viewBox="0 0 148.000000 148.000000" preserveAspectRatio="xMidYMid meet">
<g transform="translate(0.000000,148.000000) scale(0.100000,-0.100000)"
fill="#000000" stroke="none">
<path d="M506 1080 c-122 -12 -234 -38 -257 -61 -25 -25 -25 -80 -1 -102 23
-21 67 -21 147 -2 223 54 574 11 770 -94 49 -26 56 -26 89 0 26 20 34 57 20
94 -9 22 -120 77 -219 108 -156 49 -379 72 -549 57z"/>
<path d="M475 824 c-81 -13 -161 -36 -177 -51 -24 -22 -23 -66 2 -88 20 -18
23 -18 113 1 203 42 447 15 615 -70 80 -40 111 -44 135 -18 41 45 14 85 -89
134 -135 63 -253 89 -424 93 -80 2 -158 1 -175 -1z"/>
<path d="M520 584 c-14 -2 -59 -9 -100 -15 -81 -12 -110 -29 -110 -64 0 -46
20 -50 152 -30 199 29 344 12 497 -60 85 -41 92 -42 115 -16 26 29 16 52 -35
87 -110 74 -361 121 -519 98z"/>
</g>
</svg>
